PathFileType	4	(X/Y/Z)	TVC_36_BWA_04_walk_RCNL2025.trc
DataRate	CameraRate	NumFrames	NumMarkers	Units	OrigDataRate	OrigDataStartFrame	OrigNumFrames
100	100	10	27	mm	100	87	695
Frame#	Time	R_Shoulder			L_Shoulder			C7			J_Notch			R_Elbow			L_Elbow			R_Wrist			L_Wrist			R_Asis			L_Asis			R_Psis			L_Psis			Sacral			Thoracic			Sternum			R_Thigh_Lateral			R_Knee_Lateral			R_Shank_Lateral			R_Ankle_Lateral			R_Heel			R_Toe			L_Thigh_Lateral			L_Knee_Lateral			L_Shank_Lateral			L_Ankle_Lateral			L_Heel			L_Toe		
		X1	Y1	Z1	X2	Y2	Z2	X3	Y3	Z3	X4	Y4	Z4	X5	Y5	Z5	X6	Y6	Z6	X7	Y7	Z7	X8	Y8	Z8	X9	Y9	Z9	X10	Y10	Z10	X11	Y11	Z11	X12	Y12	Z12	X13	Y13	Z13	X14	Y14	Z14	X15	Y15	Z15	X16	Y16	Z16	X17	Y17	Z17	X18	Y18	Z18	X19	Y19	Z19	X20	Y20	Z20	X21	Y21	Z21	X22	Y22	Z22	X23	Y23	Z23	X24	Y24	Z24	X25	Y25	Z25	X26	Y26	Z26	X27	Y27	Z27
87	0.86000000	-186.720337	1406.878784	340.390320	-314.102356	1374.933960	17.702209	-276.244171	1444.154907	196.676239	-138.120743	1313.846680	151.113922	-241.124832	1134.579834	467.034363	-348.041809	1078.022583	-80.328125	-176.280380	918.672699	477.959747	-167.511093	958.880402	-55.478489	-137.422211	899.772583	296.974884	-229.917786	920.195374	59.143852	-323.624451	921.175415	283.932159	-357.152863	916.059998	206.338989	-340.388657	918.617706	245.135574	-330.005157	1154.113647	231.806320	-108.594528	1162.384766	129.182281	-180.734634	625.346985	365.965485	-197.117096	449.488129	268.377777	-263.427185	252.798798	310.239807	-309.020905	67.676193	232.665192	-355.874542	56.361343	182.482376	-186.645096	41.901051	205.231384	-208.547409	726.640869	-79.883995	-100.105667	550.124878	-85.131897	-159.899017	359.510437	-150.986023	-109.966927	142.340607	-137.464798	-149.311218	124.761200	-89.846672	20.727930	114.119926	-121.504608
88	0.87000000	-184.435455	1406.277466	341.550629	-313.552917	1374.901733	19.007763	-274.971252	1443.779419	197.745804	-136.881866	1313.490479	151.521515	-239.520813	1133.348633	467.223969	-348.516388	1078.159668	-78.579369	-173.842659	917.938416	477.823471	-168.421333	958.262329	-53.557871	-135.534286	899.665527	297.060486	-227.430145	920.139282	58.955051	-321.779236	920.423462	283.272491	-355.199493	915.090759	205.596756	-338.489365	917.757111	244.434624	-328.672607	1153.609009	232.376099	-107.365273	1162.226440	129.154755	-178.489792	625.090271	365.103424	-195.227371	449.153198	267.665649	-261.389374	253.427795	310.191681	-309.046844	67.688988	232.561783	-355.856659	56.340881	182.514221	-186.582321	41.893494	205.124924	-200.986542	728.107483	-79.968147	-92.047928	551.919556	-84.601143	-149.218460	360.173462	-150.228226	-97.982399	145.469940	-136.633087	-133.567398	123.240685	-90.093445	34.756680	117.351616	-119.272964
89	0.88000000	-181.595718	1405.403076	342.462036	-312.910492	1374.809937	20.241610	-273.343964	1443.423096	198.765198	-135.584290	1312.991699	152.074509	-238.097931	1132.027100	467.391296	-348.725342	1077.963135	-77.314606	-170.874283	917.432556	477.456024	-169.290131	957.508209	-51.325102	-133.798706	899.611145	296.926300	-224.825516	919.697937	58.651726	-320.049683	919.616821	282.356018	-353.297363	913.985046	204.693008	-336.673523	916.800934	243.524513	-327.413727	1153.073242	232.439499	-106.010612	1162.056030	129.093658	-176.295731	624.641052	363.983337	-193.388428	448.625854	266.695465	-258.896973	253.662460	309.997528	-308.823303	67.760605	232.421921	-355.735840	56.297398	182.245499	-186.573608	41.932140	205.045258	-192.899155	729.887024	-79.904190	-84.017639	553.628235	-83.388580	-138.237549	360.919617	-149.538330	-85.273712	147.025574	-134.893311	-120.240486	124.121696	-89.392166	48.176960	120.178276	-116.508606
90	0.89000000	-172.270798	1404.575073	343.065918	-312.172333	1374.628052	21.474115	-271.989655	1442.986206	199.589310	-134.400055	1312.620728	152.387711	-236.740768	1130.612793	467.379608	-349.279633	1077.797363	-75.910683	-168.405457	915.752869	477.366470	-169.819199	956.979065	-49.446207	-132.095200	899.348694	296.186737	-222.227219	919.250305	57.991688	-318.394684	918.631104	281.633179	-351.416473	912.945312	203.481400	-334.905579	915.788208	242.557289	-325.832947	1152.261719	232.404922	-104.703529	1161.879028	129.105576	-174.212769	623.998535	363.111084	-191.660599	447.905090	265.973114	-257.354218	253.177612	309.671173	-308.738800	67.809708	232.265839	-355.722260	56.321827	182.217239	-186.587860	41.966732	204.867645	-185.325104	731.641541	-79.107437	-76.027367	555.056274	-82.229546	-127.406387	361.625427	-148.512558	-71.455917	147.559860	-133.136017	-107.752182	125.696297	-87.104126	60.985054	123.101082	-113.235977
91	0.90000000	-167.910431	1403.516724	343.759583	-311.505707	1374.448853	22.418823	-270.389130	1442.373413	200.513596	-132.876404	1312.125854	152.816452	-235.324417	1129.190186	467.180756	-349.420319	1077.549927	-74.145142	-166.027100	914.289429	477.659103	-170.518539	956.543060	-46.805500	-130.113037	899.052063	296.367676	-219.688507	918.618469	57.267399	-316.653931	917.522522	280.489166	-349.768158	912.037170	202.309891	-333.211044	914.779846	241.399529	-324.180206	1151.345337	232.162140	-103.244858	1161.715698	129.111588	-172.210892	623.633057	362.377716	-190.013824	447.461426	265.389679	-256.841522	252.804108	308.759827	-308.661743	67.668663	232.008148	-355.740601	56.290081	181.857483	-186.600479	41.985748	204.852448	-178.162277	732.139160	-79.061996	-67.905304	556.537354	-80.921494	-116.727776	362.430573	-147.234558	-59.934238	149.640106	-130.940674	-95.555611	126.665405	-85.094650	73.271240	125.439194	-109.494659
92	0.91000000	-166.619171	1402.299805	344.478149	-310.632538	1374.152344	23.412697	-268.904877	1441.860962	201.291016	-131.566650	1311.670410	153.049591	-232.021622	1128.232056	467.719604	-349.668335	1077.269653	-72.596039	-164.434193	912.972626	476.758041	-171.053162	956.022034	-44.576021	-128.594391	898.845825	296.167114	-216.870331	917.919556	56.651131	-316.906952	916.722839	277.468781	-347.526489	910.712219	200.499725	-332.216721	913.717529	238.984253	-322.806427	1150.575562	231.918716	-101.686821	1161.437256	129.076553	-170.048416	623.404663	361.681885	-188.206467	447.154816	264.843719	-256.672272	252.373718	308.063843	-308.647430	67.583534	231.791336	-355.713348	56.387421	181.690231	-186.616730	42.012581	204.868835	-171.101212	732.971924	-78.471863	-59.789867	557.849182	-79.603882	-106.131500	363.072601	-145.875031	-48.317379	150.638885	-128.376617	-84.115852	127.466400	-82.578804	84.829086	127.904274	-105.351402
93	0.92000000	-164.731094	1401.429321	345.637787	-309.709473	1373.880981	24.351055	-267.376282	1441.292480	202.076309	-130.193481	1311.308228	153.307541	-228.751953	1127.416870	467.967621	-349.877747	1076.911499	-71.047279	-163.168655	911.680511	475.593704	-171.624382	955.320496	-42.008415	-127.062241	898.672852	296.036835	-213.853699	917.331482	55.832527	-315.716278	915.433533	276.254822	-345.292328	909.510254	198.759903	-330.504303	912.471893	237.507362	-321.275146	1149.776855	231.333008	-99.959435	1161.105225	128.995651	-167.835846	623.270020	361.271210	-186.349045	446.941864	264.582977	-258.346497	251.663254	306.972290	-308.581543	67.682617	231.684113	-355.598175	56.256432	181.424911	-186.526962	42.049717	204.935333	-164.345657	733.239685	-77.855019	-51.883427	559.057922	-77.919106	-96.127571	363.618866	-144.180084	-35.647865	150.213867	-125.482620	-76.155624	131.570145	-78.924644	95.925667	129.968048	-100.900208
94	0.93000000	-161.378296	1400.644897	346.669983	-308.774841	1373.592041	25.026846	-266.009949	1440.811157	202.922913	-128.802170	1310.897827	153.503052	-226.395966	1125.969849	467.690033	-349.991913	1076.462524	-69.521584	-161.875500	909.765656	474.752899	-172.294495	954.405273	-39.216606	-125.426468	898.529053	296.074829	-210.967712	916.551086	54.892853	-313.444092	914.208618	275.500610	-343.105835	908.507507	197.128601	-328.274963	911.358063	236.314606	-319.724640	1149.046265	230.847244	-98.421684	1160.869263	129.027451	-165.527252	622.988342	360.919189	-184.395554	446.582062	264.380859	-258.406311	251.605530	306.950867	-308.609680	67.756432	231.607727	-355.553772	56.319130	181.133514	-186.595901	41.907547	204.915039	-158.129211	732.654724	-77.641144	-44.032406	559.802856	-76.116959	-86.717056	363.902069	-141.966766	-26.924984	152.141724	-121.347565	-66.951469	132.649033	-75.744133	106.243469	131.675919	-95.904930
95	0.94000000	-162.318375	1399.354126	345.813873	-307.556152	1373.245361	25.625805	-264.466980	1440.186646	203.169830	-127.289986	1310.431641	153.457977	-222.671402	1125.045166	467.930725	-350.054504	1075.982422	-68.052010	-160.365814	908.084381	473.901230	-172.507713	953.877380	-36.583082	-123.701591	898.349365	296.028473	-207.893021	915.507507	54.182392	-311.568237	913.278015	274.124390	-340.821442	907.559814	195.403687	-326.194839	910.418915	234.764038	-318.298553	1148.341187	230.063034	-96.648392	1160.676758	128.997345	-163.305908	622.757690	360.434479	-182.529327	446.273132	264.046112	-257.657043	251.538712	306.852905	-308.615021	67.759476	231.496429	-355.476685	56.505131	180.969711	-186.605835	42.052299	205.098602	-152.096237	732.473328	-77.272423	-36.472530	560.631287	-74.027962	-77.441368	364.099884	-139.740097	-17.053438	152.896271	-118.110207	-57.123562	132.944778	-72.069046	115.889839	133.255569	-90.845955
96	0.95000000	-162.394592	1398.633667	346.387848	-306.263672	1372.880371	25.966892	-262.873871	1439.755005	203.514755	-125.850502	1310.220825	153.680756	-219.062195	1124.253052	468.444458	-350.116241	1075.502319	-66.527664	-157.948013	907.701599	472.539185	-172.874557	953.081451	-33.435530	-122.018898	898.032776	295.926758	-204.972412	914.777283	53.441189	-309.824493	912.566345	272.736481	-338.503021	906.748657	193.722031	-324.163757	909.657501	233.229256	-316.674194	1147.510742	229.171356	-94.731247	1160.497070	129.144684	-161.254059	622.471191	360.265442	-180.832596	445.908539	264.026978	-255.615555	251.552795	307.416321	-308.567566	67.714951	231.356628	-355.565308	56.645424	181.231705	-186.585022	42.072006	205.222809	-146.478210	731.717957	-77.025459	-29.317577	561.292786	-72.066826	-68.842072	364.148529	-137.090851	-4.655550	151.798355	-113.944405	-46.235794	131.869904	-68.938690	125.090439	134.384796	-85.433563
